# xmcd CD database file
#
# Track frame offsets:
#	150
#	22283
#	37550
#	60049
#	69990
#	90115
#	108677
#	131534
#	153818
#	173231
#	185992
#	208988
#
# Disc length: 2832 seconds
#
# Revision: 0
# Processed by: cddbd v1.5.2PL0 Copyright (c) Steve Scherf et al.
# Submitted via: CDex 1.51
#
DISCID=980b0e0c
DTITLE=Leah Siegel - Little Mule
DYEAR=2006
DGENRE=Jazz
TTITLE0=A Day At The River (w/ You and Your Lover)
TTITLE1=The Water
TTITLE2=The Grandma Song
TTITLE3=Sea Dragon
TTITLE4=Lemon
TTITLE5=A Trail of Peach Pits
TTITLE6=My Heart Is A Graveyard
TTITLE7=Pin Down
TTITLE8=The Motorcycle Song
TTITLE9=Black Tile Room
TTITLE10=Raincloud
TTITLE11=The Pond Was Dry
EXTD=YEAR: 2006
EXTT0=
EXTT1=
EXTT2=
EXTT3=
EXTT4=
EXTT5=
EXTT6=
EXTT7=
EXTT8=
EXTT9=
EXTT10=
EXTT11=
PLAYORDER=
